<?xml version="1.0" encoding="UTF-8" standalone="no"?>
<svg
   xmlns:dc="http://purl.org/dc/elements/1.1/"
   xmlns:cc="http://creativecommons.org/ns#"
   xmlns:rdf="http://www.w3.org/1999/02/22-rdf-syntax-ns#"
   xmlns:svg="http://www.w3.org/2000/svg"
   xmlns="http://www.w3.org/2000/svg"
   xmlns:sodipodi="http://sodipodi.sourceforge.net/DTD/sodipodi-0.dtd"
   xmlns:inkscape="http://www.inkscape.org/namespaces/inkscape"
   width="297mm"
   height="210mm"
   viewBox="0 0 297 210"
   version="1.1"
   id="svg45"
   inkscape:version="1.0.2 (1.0.2+r75+1)"
   sodipodi:docname="devacademy1.svg">
  <defs
     id="defs39" />
  <sodipodi:namedview
     id="base"
     pagecolor="#ffffc0"
     bordercolor="#666666"
     borderopacity="1.0"
     inkscape:pageopacity="0"
     inkscape:pageshadow="2"
     inkscape:zoom="1.4"
     inkscape:cx="545.31033"
     inkscape:cy="335.52212"
     inkscape:document-units="mm"
     inkscape:current-layer="layer1"
     inkscape:document-rotation="0"
     showgrid="false"
     showguides="true"
     inkscape:guide-bbox="true"
     inkscape:window-width="1920"
     inkscape:window-height="1043"
     inkscape:window-x="1920"
     inkscape:window-y="0"
     inkscape:window-maximized="1" />
  <metadata
     id="metadata42">
    <rdf:RDF>
      <cc:Work
         rdf:about="">
        <dc:format>image/svg+xml</dc:format>
        <dc:type
           rdf:resource="http://purl.org/dc/dcmitype/StillImage" />
        <dc:title></dc:title>
      </cc:Work>
    </rdf:RDF>
  </metadata>
  <g
     inkscape:label="Layer 1"
     inkscape:groupmode="layer"
     id="layer1">
    <g
       aria-label="dev.academy"
       transform="matrix(1.5043573,0,0,1.2170558,-23.40963,-82.325175)"
       id="text49"
       style="font-style:normal;font-weight:normal;font-size:37.0571px;line-height:1.25;font-family:sans-serif;letter-spacing:0.463214px;fill:#000000;fill-opacity:1;stroke:none;stroke-width:0.926425">
      <g
         id="g996">
        <path
           id="path85"
           style="fill:#ffffff;stroke-width:0.926;stroke-miterlimit:4;stroke-dasharray:none"
           d="m 40.357422,135.77344 c -0.0014,2.39388 -0.0054,4.78776 -0.0078,7.18164 -4.226532,-0.88895 -8.737824,2.51002 -9.082031,6.8125 -0.196674,2.06763 0.02284,4.14613 -0.07422,6.21836 -0.05466,2.08363 0.147842,4.33239 1.531172,6.00334 2.014326,2.70022 5.869488,4.09823 9.060625,2.78611 0.992051,0.4812 2.1055,0.14671 3.162889,0.23344 0.671641,-0.008 1.343221,0.006 2.014846,0.009 0,-9.92448 0,-19.84896 0,-29.77344 -2.201823,0 -4.403646,0 -6.605469,0 0,0.17643 0,0.35287 0,0.5293 z m -0.791016,13.67773 c 0.744203,0.0905 0.920133,0.94122 0.786693,1.55352 -0.03341,2.38051 0.09948,4.81646 -0.08552,7.14765 -0.673256,0.96029 -2.613193,0.44531 -2.437215,-0.82672 -0.0391,-2.12943 -0.0019,-4.2614 -0.02203,-6.39085 -0.03047,-0.67895 0.316369,-1.39347 1.064714,-1.45625 0.228756,-0.0424 0.461993,-0.0446 0.693359,-0.0274 z" />
        <path
           id="path87"
           style="fill:#ffffff;stroke-width:0.926;stroke-miterlimit:4;stroke-dasharray:none"
           d="m 54.037109,142.77344 c -4.328256,0.0858 -7.959225,4.34721 -7.504476,8.62343 0.09555,2.78833 -0.29225,5.63629 0.365805,8.37657 1.202376,3.81011 5.608207,6.22842 9.467961,5.1586 2.340163,-0.54424 4.381522,-2.1442 5.559382,-4.22696 0.0965,-1.4133 -1.203917,-2.27248 -2.261066,-2.92014 -0.21305,-0.29484 -1.161729,-0.58996 -0.842949,-0.84508 3.171614,-2.00089 4.312511,-6.49582 2.581588,-9.80021 -1.354473,-2.6967 -4.325621,-4.54416 -7.366245,-4.36621 z m 0.496094,6.64453 c 1.285671,0.0752 1.450643,2.29854 0.100507,2.44502 -0.492717,0.12208 -1.004904,0.0795 -1.506757,0.0569 -0.05431,-0.90424 -0.102793,-2.27716 1.046875,-2.48828 0.119306,-0.0221 0.238811,-0.0206 0.359375,-0.0137 z m 0.904297,8.73828 c -0.543699,0.39727 -1.40302,0.57527 -1.923828,0.0488 0.672627,0.001 1.346251,-0.0301 2.013672,-0.11524 l -0.08042,0.0594 z" />
        <path
           id="path89"
           style="fill:#ffffff;stroke-width:0.926;stroke-miterlimit:4;stroke-dasharray:none"
           d="m 59.546875,143.51953 c 0.05661,4.3739 -0.06487,8.76068 0.122366,13.1262 0.548562,2.31015 2.632551,3.70943 4.104386,5.41195 1.181671,1.14829 2.200037,2.73957 3.898248,3.13177 1.631482,0.32525 3.297138,-0.52418 4.221911,-1.85844 1.616245,-1.76178 3.500568,-3.3223 4.831372,-5.31798 1.054888,-2.19185 0.463214,-4.67597 0.620743,-7.00678 0.0012,-2.67266 0.003,-5.34531 0.0037,-8.01797 -2.238932,0 -4.477864,0 -6.716797,0 1e-6,4.10026 0,8.20052 0,12.30078 -0.688125,0.77386 -1.377766,1.54376 -2.0625,2.32032 -0.734374,-0.78972 -1.46875,-1.57943 -2.203124,-2.36915 -0.02561,-4.08398 -0.04945,-8.16797 -0.07617,-12.25195 -2.248698,0 -4.497396,0 -6.746094,0 6.51e-4,0.17708 0.0013,0.35417 0.002,0.53125 z" />
        <path
           id="path91"
           style="fill:#ffffff;stroke-width:0.926;stroke-miterlimit:4;stroke-dasharray:none"
           d="m 77.724609,157.625 c -2.663139,0.15146 -4.255715,3.59992 -2.785156,5.78125 1.373397,2.29051 5.21489,2.18626 6.454757,-0.18616 1.183711,-2.03169 -0.03,-5.02403 -2.384444,-5.48962 -0.420973,-0.0984 -0.854352,-0.11827 -1.285157,-0.10547 z" />
        <path
           id="path93"
           style="font-style:normal;font-variant:normal;font-weight:normal;font-stretch:normal;font-family:'Zag Regular';-inkscape-font-specification:'Zag Regular, ';letter-spacing:0.463214px;fill:#ffffff;stroke-width:0.926;stroke-miterlimit:4;stroke-dasharray:none"
           d="m 87.519531,142.8125 c -2.590849,0.13279 -4.803987,1.73349 -6.597656,3.48242 0.744918,1.15054 1.616067,2.32131 2.285156,3.45703 -2.365131,1.73885 -3.443623,4.80192 -3.191406,7.66797 0.0783,3.42584 2.521853,6.67507 5.865239,7.53742 1.69624,0.47186 3.591795,0.34089 5.142574,-0.52375 1.323569,0.93186 3.274937,1.20679 4.65625,0.27539 1.043599,-1.11125 0.509932,-2.72683 0.674652,-4.08158 0.02598,-1.5633 0.05283,-3.12658 0.0773,-4.6899 -0.26939,0.18209 -0.895901,1.35493 -0.851563,0.66602 -0.02753,-2.50708 0.284607,-5.03758 -0.06641,-7.5293 -0.811702,-3.57022 -4.254957,-6.51397 -7.994141,-6.26172 z m 0.585938,11.98047 c 0.667074,-0.0898 1.262654,0.57258 0.99551,1.21709 -0.121256,0.7805 0.350465,1.74202 -0.216213,2.39033 -0.865075,0.58283 -2.352127,0.0159 -2.227528,-1.14046 -0.107165,-0.8877 -0.123429,-2.23865 0.9912,-2.45915 0.152043,-0.0285 0.303922,-0.0184 0.457031,-0.008 z" />
        <path
           id="path95"
           style="font-style:normal;font-variant:normal;font-weight:normal;font-stretch:normal;font-family:'Zag Regular';-inkscape-font-specification:'Zag Regular, ';letter-spacing:0.463214px;fill:#ffffff;stroke-width:0.926;stroke-miterlimit:4;stroke-dasharray:none"
           d="m 102.60938,142.78516 c -4.17895,0.22666 -7.697998,4.29174 -7.271817,8.46757 0.06477,2.74389 -0.232839,5.52891 0.291343,8.23946 1.14776,4.11873 6.073324,6.86199 10.125394,5.24396 3.53032,-1.32544 5.74135,-5.34148 5.20078,-9.02912 -0.20705,-0.85991 -1.10921,-1.41247 -1.96367,-1.19336 -1.53425,0 -3.06849,0 -4.60274,0 0.0562,1.28477 0.39027,2.89778 -0.68945,3.86719 -0.92169,0.6814 -2.09052,-0.60729 -1.76172,-1.55859 0.0955,-2.27854 -0.21931,-4.5997 0.18945,-6.84766 0.51854,-0.79599 1.92374,-0.67565 2.11719,0.32422 0.34934,1.0123 0.18979,2.10089 0.23438,3.15039 2.17513,0 4.35026,0 6.52539,0 0.45692,-3.36466 -0.60183,-7.14245 -3.43389,-9.20717 -1.41253,-1.06586 -3.1964,-1.58606 -4.96064,-1.45689 z" />
        <path
           id="path97"
           style="font-style:normal;font-variant:normal;font-weight:normal;font-stretch:normal;font-family:'Zag Regular';-inkscape-font-specification:'Zag Regular, ';letter-spacing:0.463214px;fill:#ffffff;stroke-width:0.926;stroke-miterlimit:4;stroke-dasharray:none"
           d="m 134.61133,135.77344 c -0.001,2.39323 -0.004,4.78646 -0.006,7.17968 -4.21076,-0.87995 -8.71105,2.48707 -9.0773,6.77271 -0.21301,2.07213 0.0193,4.15844 -0.0808,6.23628 -0.0496,2.08192 0.13598,4.32755 1.51163,6.00469 2.01397,2.70695 5.87548,4.12737 9.07422,2.80859 1.00112,0.49721 2.14671,0.13824 3.21679,0.23928 0.6556,-0.002 1.3112,-0.004 1.96681,-0.007 0,-9.92122 0,-19.84245 0,-29.76367 -2.20183,0 -4.40365,0 -6.60547,0 0,0.17643 0,0.35287 0,0.5293 z m -0.78711,13.67773 c 0.74835,0.0929 0.91246,0.95005 0.78278,1.56328 -0.0351,2.38053 0.10335,4.77005 -0.0894,7.14375 -0.68223,0.96254 -2.61492,0.42249 -2.43334,-0.84235 -0.0346,-2.11392 -0.002,-4.23 -0.0197,-6.34405 -0.0309,-0.67156 0.26471,-1.40636 1.0214,-1.48352 0.24314,-0.0497 0.49141,-0.0604 0.73828,-0.0371 z" />
        <path
           id="path99"
           style="font-style:normal;font-variant:normal;font-weight:normal;font-stretch:normal;font-family:'Zag Regular';-inkscape-font-specification:'Zag Regular, ';letter-spacing:0.463214px;fill:#ffffff;stroke-width:0.926;stroke-miterlimit:4;stroke-dasharray:none"
           d="m 148.29102,142.77344 c -4.36737,0.089 -8.00198,4.41593 -7.50271,8.72341 0.0906,2.77603 -0.30134,5.61775 0.38747,8.34104 1.23614,3.81507 5.68853,6.18927 9.54586,5.07195 2.29781,-0.56533 4.29107,-2.14949 5.45414,-4.1989 0.11093,-1.38116 -1.14463,-2.24362 -2.18131,-2.87479 -0.23075,-0.32132 -1.33106,-0.65418 -0.8597,-0.93185 3.05319,-1.98013 4.19879,-6.27744 2.62948,-9.54144 -1.29998,-2.81906 -4.34771,-4.77118 -7.47323,-4.58942 z m 0.59765,6.65039 c 1.16693,0.20082 1.3147,2.16993 0.0973,2.42239 -0.52051,0.15957 -1.07052,0.0675 -1.60513,0.0698 -0.0513,-0.88923 -0.11278,-2.23731 1.00951,-2.46795 0.16159,-0.046 0.33277,-0.0358 0.4983,-0.0242 z m 0.8086,8.73242 c -0.54726,0.39701 -1.40217,0.57774 -1.92579,0.0488 0.67266,0.001 1.34616,-0.0309 2.01368,-0.11524 l -0.0798,0.0603 z" />
        <path
           id="path101"
           style="font-style:normal;font-variant:normal;font-weight:normal;font-stretch:normal;font-family:'Zag Regular';-inkscape-font-specification:'Zag Regular, ';letter-spacing:0.463214px;fill:#ffffff;stroke-width:0.926;stroke-miterlimit:4;stroke-dasharray:none"
           d="m 172.72461,142.73828 c -1.47357,0.087 -2.93804,0.67591 -4.07031,1.5586 -1.95019,-1.61712 -4.83105,-2.03353 -7.14453,-0.98633 -1.21718,-0.72325 -2.67543,-0.11812 -3.98766,-0.34062 -0.66575,-0.18059 -1.42256,0.31105 -1.27016,1.04843 0,6.99713 0,13.99427 0,20.99141 2.1875,0 4.375,0 6.5625,0 0.0621,-4.94059 -0.0991,-9.88353 0.0957,-14.82227 0.3649,-1.09847 2.2978,-1.03861 2.39257,0.21094 0.21433,1.28647 -0.0428,2.59794 0.0645,3.89531 0,3.57201 0,7.14401 0,10.71602 2.18815,0 4.3763,0 6.56445,0 0.0622,-4.94255 -0.0962,-9.88733 0.0937,-14.82813 0.34415,-1.03645 2.17871,-1.0584 2.32617,0.12109 0.27188,1.3737 -0.014,2.78354 0.0957,4.17266 0,3.51146 0,7.02292 0,10.53438 2.18945,0 4.3789,0 6.56835,0 -0.0487,-5.22089 0.11096,-10.44894 -0.11308,-15.66489 -0.62941,-3.77766 -4.29904,-6.91088 -8.17793,-6.6066 z" />
        <path
           id="path103"
           style="font-style:normal;font-variant:normal;font-weight:normal;font-stretch:normal;font-family:'Zag Regular';-inkscape-font-specification:'Zag Regular, ';letter-spacing:0.463214px;fill:#ffffff;stroke-width:0.926;stroke-miterlimit:4;stroke-dasharray:none"
           d="m 181.6543,143.51758 c 0.049,5.06198 -0.11073,10.1313 0.11127,15.18829 0.42263,2.64676 2.42773,4.87485 4.87701,5.8664 -1.47128,-0.0677 -2.174,1.47874 -3.06188,2.38064 -0.55096,0.64268 -1.10275,1.28464 -1.65297,1.92795 2.24706,2.0049 5.02801,3.89111 8.17774,3.69432 4.19386,-0.17231 7.59744,-4.30477 7.23437,-8.4326 0,-7.05143 0,-14.10287 0,-21.1543 -2.20117,0 -4.40234,0 -6.60351,0 -0.0276,5.04161 0.0511,10.08403 -0.0547,15.125 -0.7089,0.93268 -2.56202,0.35571 -2.41893,-0.89664 -0.004,-4.74024 -0.002,-9.48579 -0.003,-14.22836 -2.20183,0 -4.40365,0 -6.60547,0 0,0.17643 0,0.35287 0,0.5293 z m 5.76562,21.32812 c 1.05406,0.30929 2.17784,0.39253 3.26172,0.20313 -0.16687,0.92845 -1.30434,1.11852 -1.99147,0.63655 -0.44162,-0.23461 -0.87893,-0.59265 -1.27025,-0.83968 z" />
        <path
           id="path105"
           style="font-style:normal;font-variant:normal;font-weight:normal;font-stretch:normal;font-family:'Zag Regular';-inkscape-font-specification:'Zag Regular, ';letter-spacing:0.463214px;fill:#ffffff;stroke-width:0.926;stroke-miterlimit:4;stroke-dasharray:none"
           d="m 117.42578,142.8125 c -2.59082,0.13543 -4.80741,1.73163 -6.60156,3.48242 0.74515,1.15105 1.616,2.32263 2.28516,3.45899 -2.33383,1.72095 -3.42992,4.73939 -3.19024,7.57772 0.0414,3.36494 2.36309,6.57512 5.60231,7.55463 1.76779,0.55848 3.77527,0.44983 5.41214,-0.45267 1.32044,0.93464 3.27284,1.20496 4.65235,0.27539 1.0436,-1.11183 0.51049,-2.72817 0.674,-4.08354 0.0235,-1.56069 0.0474,-3.12138 0.0701,-4.68208 -0.292,0.22087 -0.94724,1.42333 -0.84491,0.56407 -0.0335,-2.50587 0.30706,-5.04242 -0.0895,-7.52827 -0.84749,-3.52545 -4.2664,-6.41709 -7.96989,-6.16666 z m 0.57031,11.97852 c 0.66414,-0.0912 1.29031,0.56229 1.01058,1.2151 -0.12372,0.78585 0.36355,1.76291 -0.23323,2.40404 -0.8789,0.57836 -2.346,-0.0183 -2.21245,-1.17361 -0.11681,-0.87864 -0.10898,-2.19292 0.97221,-2.43577 0.1547,-0.0332 0.30673,-0.0241 0.46289,-0.01 z" />
        <path
           d="m 39.138536,163.15276 c 1.259942,0 2.705169,-0.33352 3.372196,-1.88992 l 0.296457,1.63052 h 2.03814 v -25.53234 h -2.371654 v 9.4125 c -0.667028,-1.297 -2.223426,-1.8158 -3.335139,-1.85286 -3.112796,-0.0741 -5.817964,2.63106 -5.817964,5.59563 v 7.00379 c 0,3.00162 2.742225,5.63268 5.817964,5.63268 z m -3.44631,-12.63647 c 0,-1.8158 1.593455,-3.18692 3.44631,-3.18692 2.149312,0 3.298082,1.25995 3.335139,3.03869 v 7.55965 c 0,1.55639 -1.445227,2.85339 -3.335139,2.85339 -1.889912,0 -3.44631,-1.51934 -3.44631,-3.26102 z"
           style="fill:#ffcc00"
           id="path54" />
        <path
           d="m 60.09429,150.62746 c 0,-3.18691 -2.593997,-5.74385 -5.706793,-5.74385 -3.261024,0 -5.74385,2.74222 -5.74385,5.7809 v 6.67028 c 0,3.26103 2.631054,5.70679 5.74385,5.70679 1.66757,0 3.779824,-0.62997 5.225051,-2.70516 l -1.964026,-1.40817 c -0.889371,1.22288 -2.223426,1.74168 -3.261025,1.74168 -1.852855,0 -3.372196,-1.48228 -3.372196,-3.33514 v -1.25994 h 3.372196 c 3.075739,0 5.706793,-2.14931 5.706793,-5.44739 z m -9.078989,3.40925 v -3.33514 c 0,-1.88991 1.482284,-3.40925 3.372196,-3.40925 1.852855,0 3.335139,1.48228 3.335139,3.33514 0,1.88991 -1.482284,3.40925 -3.335139,3.40925 z"
           style="fill:#ffcc00"
           id="path56" />
        <path
           d="m 61.669114,145.10595 c 0.01309,3.83352 0.03876,7.18896 0.0081,10.71464 0.03862,1.0261 0.810199,1.79288 0.810199,1.79288 1.438095,1.63957 3.278332,3.43355 4.341474,4.58409 0.882223,0.91862 0.871515,0.91969 1.621717,0.91819 0.756151,0 0.782531,-0.0659 1.718344,-1.03488 1.547421,-1.60231 3.155813,-3.27708 4.32786,-4.4646 0.57147,-0.70805 0.728577,-1.8004 0.728577,-1.8004 l 0.0067,-10.70987 h -2.482826 c -0.0094,3.46579 9.81e-4,7.72653 9.81e-4,10.98367 -0.860035,0.97088 -2.373657,2.69077 -3.519766,3.94679 -0.458951,0.70438 -0.761576,0.69345 -1.263458,0.02 l -3.709188,-3.98158 -0.06875,-10.96885 z"
           style="fill:#ffcc00"
           id="path58"
           sodipodi:nodetypes="ccsccscccccccccc" />
        <path
           d="m 78.066844,159.7435 c -0.926428,0 -1.556398,0.70409 -1.556398,1.63052 0,0.96348 0.62997,1.59345 1.556398,1.59345 1.000541,0 1.667569,-0.62997 1.667569,-1.59345 0,-0.92643 -0.667028,-1.63052 -1.667569,-1.63052 z"
           style="fill:#ffcc00"
           id="path60" />
        <path
           d="m 87.868399,163.1157 c 1.074656,0 2.705168,-0.40763 3.44631,-1.85286 0,0 0.519071,2.28165 2.883392,1.83176 0.03207,-2.00916 0,0 0.03207,-2.00916 -1.20381,1.11033 -0.617923,-10.42093 -0.617923,-10.42093 -0.194812,-3.1778 -2.668111,-5.74385 -5.74385,-5.74385 -1.40817,0 -3.001625,0.70409 -4.150395,1.74169 l 1.371113,2.03814 c 0.926427,-0.88937 1.926969,-1.37112 2.779282,-1.37112 1.852855,0 3.372196,1.48229 3.372196,3.33514 l 0.07411,1.66757 c -0.518799,-1.51934 -2.260483,-2.03814 -3.44631,-2.03814 -3.112796,0 -5.706793,2.66811 -5.706793,5.7068 v 1.33405 c 0,3.1128 2.593997,5.78091 5.706793,5.78091 z m -3.335139,-5.78091 v -1.33405 c 0,-1.85286 1.482284,-3.33514 3.335139,-3.33514 1.852855,0 3.372196,1.00054 3.372196,2.77928 v 2.81634 c 0,1.59345 -1.704627,2.48282 -3.372196,2.48282 -1.852855,0 -3.335139,-1.51934 -3.335139,-3.40925 z"
           style="font-style:normal;font-variant:normal;font-weight:normal;font-stretch:normal;font-family:'Zag Regular';-inkscape-font-specification:'Zag Regular, ';letter-spacing:0.463214px;stroke-width:0.926425"
           id="path62"
           sodipodi:nodetypes="scccssccsccssssssssssss" />
        <path
           d="m 106.56362,156.63071 c 0,2.22342 -1.48229,4.07628 -3.33514,4.07628 -1.88991,0 -3.409255,-1.51934 -3.409255,-3.3722 v -6.70733 c 0,-1.85286 1.556395,-3.33514 3.409255,-3.33514 1.85285,0 3.33514,1.74168 3.33514,4.03922 h 2.37165 c -0.0371,-3.63159 -2.66811,-6.44793 -5.70679,-6.44793 -3.1128,0 -5.780909,2.48282 -5.780909,5.74385 v 6.70733 c 0,3.1128 2.631049,5.74385 5.780909,5.74385 3.22397,0 5.66973,-2.92751 5.70679,-6.44793 z"
           style="font-style:normal;font-variant:normal;font-weight:normal;font-stretch:normal;font-family:'Zag Regular';-inkscape-font-specification:'Zag Regular, ';letter-spacing:0.463214px;stroke-width:0.926425"
           id="path64" />
        <path
           d="m 133.39282,163.15276 c 1.25995,0 2.70517,-0.33352 3.3722,-1.88992 l 0.29646,1.63052 h 2.03814 v -25.53234 h -2.37166 v 9.4125 c -0.66702,-1.297 -2.22342,-1.8158 -3.33514,-1.85286 -3.11279,-0.0741 -5.81796,2.63106 -5.81796,5.59563 v 7.00379 c 0,3.00162 2.74222,5.63268 5.81796,5.63268 z m -3.44631,-12.63647 c 0,-1.8158 1.59346,-3.18692 3.44631,-3.18692 2.14932,0 3.29809,1.25995 3.33514,3.03869 v 7.55965 c 0,1.55639 -1.44522,2.85339 -3.33514,2.85339 -1.88991,0 -3.44631,-1.51934 -3.44631,-3.26102 z"
           style="font-style:normal;font-variant:normal;font-weight:normal;font-stretch:normal;font-family:'Zag Regular';-inkscape-font-specification:'Zag Regular, ';letter-spacing:0.463214px;stroke-width:0.926425"
           id="path68" />
        <path
           d="m 154.34858,150.62746 c 0,-3.18691 -2.594,-5.74385 -5.7068,-5.74385 -3.26102,0 -5.74385,2.74222 -5.74385,5.7809 v 6.67028 c 0,3.26103 2.63106,5.70679 5.74385,5.70679 1.66757,0 3.77983,-0.62997 5.22505,-2.70516 l -1.96402,-1.40817 c -0.88937,1.22288 -2.22343,1.74168 -3.26103,1.74168 -1.85285,0 -3.37219,-1.48228 -3.37219,-3.33514 v -1.25994 h 3.37219 c 3.07574,0 5.7068,-2.14931 5.7068,-5.44739 z m -9.07899,3.40925 v -3.33514 c 0,-1.88991 1.48228,-3.40925 3.37219,-3.40925 1.85286,0 3.33514,1.48228 3.33514,3.33514 0,1.88991 -1.48228,3.40925 -3.33514,3.40925 z"
           style="font-style:normal;font-variant:normal;font-weight:normal;font-stretch:normal;font-family:'Zag Regular';-inkscape-font-specification:'Zag Regular, ';letter-spacing:0.463214px;stroke-width:0.926425"
           id="path70" />
        <path
           d="m 160.70382,150.62746 c 0,-1.8158 1.51934,-3.3722 3.3722,-3.3722 1.88991,0 3.40925,1.5564 3.40925,3.3722 v 12.2659 h 2.3346 v -12.2659 c 0,-1.8158 1.51934,-3.3722 3.37219,-3.3722 1.85286,0 3.3722,1.5564 3.3722,3.3722 v 12.2659 h 2.3346 v -12.2659 c 0,-3.00163 -2.594,-5.78091 -5.63268,-5.78091 -1.85286,0 -3.77983,0.7782 -4.59508,3.18691 -0.7782,-2.40871 -2.77928,-3.18691 -4.52097,-3.18691 -1.22288,0 -2.85339,0.59291 -3.52042,2.03814 l -0.33352,-1.77874 h -1.92697 v 17.78741 h 2.3346 z"
           style="font-style:normal;font-variant:normal;font-weight:normal;font-stretch:normal;font-family:'Zag Regular';-inkscape-font-specification:'Zag Regular, ';letter-spacing:0.463214px;stroke-width:0.926425"
           id="path72" />
        <path
           d="m 195.22245,164.78327 v -19.67732 h -2.37166 v 12.89587 c 0,1.74168 -1.51934,2.66811 -3.26102,2.66811 -1.8158,0.0371 -3.44631,-1.40817 -3.44631,-3.22397 v -12.34001 h -2.37166 v 12.34001 c 0,3.1128 2.77929,5.59562 5.81797,5.59562 0.96348,0 2.594,-0.37057 3.26102,-1.88991 v 3.6316 c 0,1.8158 -1.48228,3.29808 -3.29808,3.29808 -0.88937,0 -2.0752,-0.5188 -3.03868,-1.297 l -1.5564,1.8158 c 1.297,1.07466 3.22397,1.88991 4.59508,1.88991 3.03868,0 5.63268,-2.48282 5.66974,-5.70679 z"
           style="font-style:normal;font-variant:normal;font-weight:normal;font-stretch:normal;font-family:'Zag Regular';-inkscape-font-specification:'Zag Regular, ';letter-spacing:0.463214px;stroke-width:0.926425"
           id="path74" />
        <path
           d="m 117.77332,163.1157 c 1.07465,0 2.70516,-0.40763 3.44631,-1.85286 0,0 0.51907,2.28165 2.88339,1.83176 0.0321,-2.00916 0,0 0.0321,-2.00916 -1.20381,1.11033 -0.61793,-10.42093 -0.61793,-10.42093 -0.19481,-3.1778 -2.66811,-5.74385 -5.74385,-5.74385 -1.40817,0 -3.00162,0.70409 -4.15039,1.74169 l 1.37111,2.03814 c 0.92643,-0.88937 1.92697,-1.37112 2.77928,-1.37112 1.85286,0 3.3722,1.48229 3.3722,3.33514 l 0.0741,1.66757 c -0.5188,-1.51934 -2.26048,-2.03814 -3.44631,-2.03814 -3.1128,0 -5.70679,2.66811 -5.70679,5.7068 v 1.33405 c 0,3.1128 2.59399,5.78091 5.70679,5.78091 z m -3.33514,-5.78091 v -1.33405 c 0,-1.85286 1.48228,-3.33514 3.33514,-3.33514 1.85285,0 3.37219,1.00054 3.37219,2.77928 v 2.81634 c 0,1.59345 -1.70463,2.48282 -3.37219,2.48282 -1.85286,0 -3.33514,-1.51934 -3.33514,-3.40925 z"
           style="font-style:normal;font-variant:normal;font-weight:normal;font-stretch:normal;font-family:'Zag Regular';-inkscape-font-specification:'Zag Regular, ';letter-spacing:0.463214px;stroke-width:0.926425"
           id="path83"
           sodipodi:nodetypes="scccssccsccssssssssssss" />
      </g>
    </g>
  </g>
</svg>
